<svg xmlns="http://www.w3.org/2000/svg" viewBox="0 0 850 1100" role="img" aria-labelledby="title desc">
  <title id="title">Dashavatara Symbols Coloring Page</title>
  <desc id="desc">Ten simple symbols for the Dashavatara.</desc>
  <rect width="850" height="1100" fill="#fffdf8"/>
  <g fill="none" stroke="#19120b" stroke-width="6" stroke-linecap="round" stroke-linejoin="round">
    <circle cx="170" cy="170" r="90"/><path d="M105 170c45-42 86-42 130 0-44 42-85 42-130 0Z"/><text x="170" y="285" text-anchor="middle" font-size="26" fill="#19120b">Matsya</text>
    <circle cx="425" cy="170" r="90"/><path d="M355 188c15-49 43-74 84-74s69 25 84 74c-43 32-110 32-168 0Z"/><path d="M365 202h120"/><text x="425" y="285" text-anchor="middle" font-size="26" fill="#19120b">Kurma</text>
    <circle cx="680" cy="170" r="90"/><path d="M615 187c34-68 83-83 147-45-20 62-68 87-147 45Z"/><path d="M723 137l40-38"/><text x="680" y="285" text-anchor="middle" font-size="26" fill="#19120b">Varaha</text>
    <circle cx="170" cy="410" r="90"/><path d="M110 424c20-72 70-103 120-72 49 33 36 104-23 131"/><path d="M150 350l-16-42M190 350l16-42"/><text x="170" y="525" text-anchor="middle" font-size="26" fill="#19120b">Narasimha</text>
    <circle cx="425" cy="410" r="90"/><path d="M425 335v136M380 381c44-38 89-38 134 0M381 471h88"/><text x="425" y="525" text-anchor="middle" font-size="26" fill="#19120b">Vamana</text>
    <circle cx="680" cy="410" r="90"/><path d="M650 338l80 120M730 338l-80 120M628 460h124"/><text x="680" y="525" text-anchor="middle" font-size="26" fill="#19120b">Parashurama</text>
    <circle cx="170" cy="650" r="90"/><path d="M135 710c58-89 58-172 0-250M135 460c60 42 91 106 94 190M220 512l-58 138"/><text x="170" y="765" text-anchor="middle" font-size="26" fill="#19120b">Rama</text>
    <circle cx="425" cy="650" r="90"/><path d="M360 660c58-42 102-42 130 0M363 595c66 29 121 29 165 0M380 620l100 60"/><text x="425" y="765" text-anchor="middle" font-size="26" fill="#19120b">Krishna</text>
    <circle cx="680" cy="650" r="90"/><path d="M625 682c37-67 73-101 108-101 35 0 47 35 36 105"/><path d="M635 682h104"/><text x="680" y="765" text-anchor="middle" font-size="24" fill="#19120b">Buddha/Balarama</text>
    <circle cx="425" cy="890" r="90"/><path d="M365 922c44-81 93-114 148-100 35 10 53 34 53 72"/><path d="M485 800l68-60M528 740h62"/><text x="425" y="1005" text-anchor="middle" font-size="26" fill="#19120b">Kalki</text>
  </g>
</svg>
