<svg xmlns="http://www.w3.org/2000/svg" viewBox="0 0 850 1100" role="img" aria-labelledby="title desc">
  <title id="title">Ganesha Modak Bowl Coloring Page</title>
  <desc id="desc">Line art of Ganesha with a bowl of modaks, mouse, and lotus border.</desc>
  <rect width="850" height="1100" fill="#fffdf8"/>
  <g fill="none" stroke="#19120b" stroke-width="7" stroke-linecap="round" stroke-linejoin="round">
    <path d="M273 360c-1-74 56-132 152-132s153 58 152 132"/>
    <path d="M304 360c-56 18-93 57-107 116 48 12 89-1 123-40M546 360c56 18 93 57 107 116-48 12-89-1-123-40"/>
    <path d="M370 345c32 24 70 24 110 0"/>
    <path d="M425 374c-35 74-35 135 0 184 35-49 35-110 0-184Z"/>
    <path d="M318 555c-52 38-82 91-91 159h396c-9-68-39-121-91-159"/>
    <path d="M275 718c9 82 59 129 150 129s141-47 150-129"/>
    <path d="M282 626l-116-24M568 626l116-24M326 834l-62 86M524 834l62 86"/>
    <path d="M343 297c-14-56 12-92 78-109 75 14 104 51 87 109"/>
    <path d="M384 194c4-49 19-83 45-101 31 19 46 54 45 105"/>
    <path d="M365 307h1M485 307h1M394 331c20 10 42 10 64 0"/>
    <path d="M258 932c38 30 94 45 167 45s129-15 167-45"/>
    <path d="M244 890c110 36 252 36 362 0"/>
  </g>
  <g fill="none" stroke="#19120b" stroke-width="5" stroke-linecap="round" stroke-linejoin="round">
    <path d="M310 890c-24-52-8-87 38-110 38 24 52 60 40 108"/>
    <path d="M406 883c-17-58 4-97 58-118 42 28 55 68 39 120"/>
    <path d="M500 891c-10-49 8-83 54-102 34 27 44 61 31 102"/>
    <path d="M622 798c44-18 82-5 112 39-46 18-84 5-112-39Z"/>
    <path d="M665 822c28 29 34 60 17 94"/>
    <path d="M100 120c52 30 93 30 124 0-31 54-72 54-124 0ZM626 120c52 30 93 30 124 0-31 54-72 54-124 0Z"/>
    <path d="M100 1000c52-30 93-30 124 0-31-54-72-54-124 0ZM626 1000c52-30 93-30 124 0-31-54-72-54-124 0Z"/>
  </g>
  <text x="425" y="1040" text-anchor="middle" font-size="44" font-family="Georgia, serif" fill="#19120b">Modak Bowl</text>
</svg>
