<svg xmlns="http://www.w3.org/2000/svg" viewBox="0 0 850 1100" role="img" aria-labelledby="title desc">
  <title id="title">Ganesha's Doorway Coloring Page</title>
  <desc id="desc">Line art of child Ganesha guarding a decorated doorway.</desc>
  <rect width="850" height="1100" fill="#fffdf8"/>
  <g fill="none" stroke="#19120b" stroke-width="8" stroke-linecap="round" stroke-linejoin="round">
    <path d="M170 930V260c0-70 55-125 125-125h260c70 0 125 55 125 125v670"/>
    <path d="M225 930V286c0-37 30-67 67-67h266c37 0 67 30 67 67v644"/>
    <path d="M155 930h540M210 135c46 44 88 68 126 72M640 135c-46 44-88 68-126 72"/>
    <path d="M310 126c15-42 38-68 68-78 27 20 43 47 47 82 10-42 33-72 68-89 29 22 46 53 51 93"/>
    <path d="M304 420c-2-70 48-128 121-128s123 58 121 128"/>
    <path d="M315 421c-45 19-71 56-78 110 39 10 72-1 100-31M535 421c45 19 71 56 78 110-39 10-72-1-100-31"/>
    <path d="M356 405c23 21 47 31 72 31 25 0 48-10 69-31"/>
    <path d="M425 436c-24 58-24 106 0 144 24-38 24-86 0-144Z"/>
    <path d="M340 582c-40 26-64 67-72 121h314c-8-54-32-95-72-121"/>
    <path d="M305 703c4 63 44 103 120 103s116-40 120-103"/>
    <path d="M286 620l-80 45M564 620l80 45M305 766l-52 74M545 766l52 74"/>
    <path d="M335 355h1M515 355h1M394 382c20 12 41 12 62 0"/>
    <path d="M390 846h70M363 880h124"/>
  </g>
  <g fill="none" stroke="#19120b" stroke-width="5" stroke-linecap="round">
    <path d="M88 250c38 26 70 26 102 0M660 250c38 26 70 26 102 0"/>
    <path d="M96 344h75M679 344h75M96 438h75M679 438h75M96 532h75M679 532h75"/>
    <path d="M278 252c21 23 42 23 63 0M509 252c21 23 42 23 63 0"/>
    <circle cx="425" cy="246" r="20"/>
  </g>
  <text x="425" y="1010" text-anchor="middle" font-size="44" font-family="Georgia, serif" fill="#19120b">Ganesha Guards the Door</text>
</svg>
