<svg xmlns="http://www.w3.org/2000/svg" viewBox="0 0 850 1100" role="img" aria-labelledby="title desc">
  <title id="title">Fruit of Wisdom Coloring Page</title>
  <desc id="desc">Line art of Ganesha circling Shiva and Parvati as his world.</desc>
  <rect width="850" height="1100" fill="#fffdf8"/>
  <g fill="none" stroke="#19120b" stroke-width="7" stroke-linecap="round" stroke-linejoin="round">
    <circle cx="425" cy="535" r="315"/>
    <path d="M185 535c35-47 73-82 114-105M665 535c-35 47-73 82-114 105"/>
    <path d="M620 538l45-3-13 43M230 532l-45 3 13-43"/>
    <path d="M300 555c5-80 55-132 125-132s120 52 125 132"/>
    <path d="M363 430c-14-58 8-98 62-119 54 21 76 61 62 119"/>
    <path d="M333 559c-45 28-70 70-77 126h338c-7-56-32-98-77-126"/>
    <path d="M360 690c18 58 55 87 65 87s47-29 65-87"/>
    <path d="M300 435c-18-88 18-156 108-204M550 435c18-88-18-156-108-204"/>
    <path d="M349 488h1M501 488h1M396 514c19 12 39 12 58 0"/>
    <path d="M426 512c-26 59-26 108 0 145 26-37 26-86 0-145Z"/>
    <path d="M297 712l-63 68M553 712l63 68"/>
  </g>
  <g fill="none" stroke="#19120b" stroke-width="5" stroke-linecap="round" stroke-linejoin="round">
    <path d="M222 252c0-60 44-105 103-105s103 45 103 105"/>
    <path d="M292 147c-8-43 7-76 45-100 35 25 49 58 42 100"/>
    <path d="M249 251c-37 25-58 59-63 104h281c-5-45-26-79-63-104"/>
    <path d="M536 252c0-60 44-105 103-105s103 45 103 105"/>
    <path d="M587 145c14-47 41-77 82-91"/>
    <path d="M562 252c-37 25-58 59-63 104h281c-5-45-26-79-63-104"/>
    <circle cx="425" cy="150" r="42"/>
    <path d="M400 150c16 14 33 14 50 0"/>
  </g>
  <text x="425" y="1010" text-anchor="middle" font-size="44" font-family="Georgia, serif" fill="#19120b">Wisdom Sees the World</text>
</svg>
