<svg xmlns="http://www.w3.org/2000/svg" viewBox="0 0 850 1100" role="img" aria-labelledby="title desc">
  <title id="title">Narasimha and Prahlada Coloring Page</title>
  <desc id="desc">Respectful line art of Narasimha blessing Prahlada.</desc>
  <rect width="850" height="1100" fill="#fffdf8"/>
  <g fill="none" stroke="#19120b" stroke-width="7" stroke-linecap="round" stroke-linejoin="round">
    <path d="M285 520c-15-120 37-218 140-218s155 98 140 218"/>
    <path d="M325 322c0-88 36-151 100-190 64 39 100 102 100 190"/>
    <path d="M355 310c-36-34-50-78-42-132M495 310c36-34 50-78 42-132"/>
    <path d="M336 390c22 20 43 20 63 0M451 390c22 20 43 20 63 0"/>
    <path d="M395 445c22 14 44 14 66 0"/>
    <path d="M315 532c-62 39-98 99-108 180h436c-10-81-46-141-108-180"/>
    <path d="M284 702c10 104 57 158 141 158s131-54 141-158"/>
    <path d="M250 610l-105 76M600 610l105 76"/>
    <path d="M333 860l-70 96M517 860l70 96"/>
    <path d="M360 166c-68 49-105 113-112 192M490 166c68 49 105 113 112 192"/>
    <path d="M385 520c25 26 53 26 80 0"/>
  </g>
  <g fill="none" stroke="#19120b" stroke-width="6" stroke-linecap="round" stroke-linejoin="round">
    <path d="M425 910c-48 0-86 38-86 86h172c0-48-38-86-86-86Z"/>
    <circle cx="425" cy="850" r="48"/>
    <path d="M379 930l-52 60M471 930l52 60"/>
    <path d="M385 880c25 18 52 18 80 0"/>
    <path d="M345 992h160"/>
    <circle cx="425" cy="242" r="26"/>
    <path d="M120 105h610M120 1000h610"/>
  </g>
  <text x="425" y="80" text-anchor="middle" font-size="42" font-family="Georgia, serif" fill="#19120b">Devotion Is Protected</text>
</svg>
