<svg xmlns="http://www.w3.org/2000/svg" viewBox="0 0 800 1000">
  <rect width="800" height="1000" fill="white"/>
  <g fill="none" stroke="#111" stroke-width="5" stroke-linecap="round" stroke-linejoin="round">
    <path d="M120 220 H680 M160 220 V760 M640 220 V760"/>
    <path d="M150 220 C180 160 230 150 260 220 M540 220 C570 150 620 160 650 220"/>
    <path d="M250 760 H550"/>
    <path d="M255 470 C330 320 470 320 545 470"/>
    <path d="M255 470 C345 510 455 510 545 470"/>
    <path d="M400 310 V525"/>
    <path d="M335 370 C370 345 430 345 465 370"/>
    <path d="M320 610 C360 575 440 575 480 610"/>
    <path d="M330 650 C370 680 430 680 470 650"/>
    <circle cx="400" cy="640" r="115"/>
    <path d="M315 640 C350 610 450 610 485 640"/>
    <path d="M315 640 C350 685 450 685 485 640"/>
    <path d="M215 790 C245 745 285 745 315 790"/>
    <path d="M485 790 C515 745 555 745 585 790"/>
    <path d="M220 835 H580"/>
    <path d="M400 120 C390 150 360 150 350 180 C385 175 415 175 450 180 C440 150 410 150 400 120 Z"/>
  </g>
  <text x="400" y="940" text-anchor="middle" font-family="serif" font-size="42" fill="#111">Sita Swayamvar</text>
</svg>
