<svg xmlns="http://www.w3.org/2000/svg" viewBox="0 0 800 1000">
  <rect width="800" height="1000" fill="white"/>
  <g fill="none" stroke="#111" stroke-width="5" stroke-linecap="round" stroke-linejoin="round">
    <path d="M95 790 C230 720 570 720 705 790"/>
    <path d="M130 260 C170 190 230 190 270 260 M530 260 C570 190 630 190 670 260"/>
    <path d="M200 260 V650 M600 260 V650"/>
    <circle cx="315" cy="330" r="55"/>
    <path d="M315 385 V570 M260 455 H370 M285 570 H345"/>
    <path d="M285 250 C310 220 340 220 365 250"/>
    <circle cx="495" cy="330" r="50"/>
    <path d="M495 380 V570 M440 455 H550 M465 570 H525"/>
    <path d="M455 255 C485 225 520 225 545 255"/>
    <circle cx="405" cy="560" r="48"/>
    <path d="M405 608 C390 650 360 675 315 690"/>
    <path d="M405 608 C430 660 475 675 520 680"/>
    <path d="M380 535 C405 515 430 535 430 560"/>
    <path d="M360 615 C310 600 280 575 260 540"/>
    <path d="M450 560 C510 560 540 530 560 490"/>
    <path d="M430 520 C470 470 520 455 570 470"/>
    <path d="M230 680 C250 705 275 705 300 680"/>
    <path d="M500 700 C540 715 590 700 625 665"/>
    <path d="M625 665 C675 615 675 565 640 535"/>
  </g>
  <text x="400" y="940" text-anchor="middle" font-family="serif" font-size="42" fill="#111">Hanuman Meets Rama</text>
</svg>
