<svg xmlns="http://www.w3.org/2000/svg" viewBox="0 0 850 1100" role="img" aria-labelledby="title desc">
  <title id="title">Dasharatha's Star Chariot Coloring Page</title>
  <desc id="desc">Line art of King Dasharatha in a celestial chariot under stars.</desc>
  <rect width="850" height="1100" fill="#fffdf8"/>
  <g fill="none" stroke="#19120b" stroke-width="7" stroke-linecap="round" stroke-linejoin="round">
    <path d="M165 724h520l-70 120H235l-70-120Z"/>
    <path d="M238 724c36-124 99-186 187-186s151 62 187 186"/>
    <circle cx="285" cy="866" r="72"/><circle cx="565" cy="866" r="72"/>
    <path d="M285 794v144M213 866h144M565 794v144M493 866h144"/>
    <path d="M425 545c-30-55-22-102 25-141 47 39 55 86 25 141"/>
    <circle cx="450" cy="372" r="58"/>
    <path d="M392 338c34-46 73-74 116-84M405 327c-14-44 4-82 55-114"/>
    <path d="M377 532l-77 105M505 532l77 105"/>
    <path d="M380 435c49 32 96 32 142 0"/>
    <path d="M380 368h1M505 368h1M420 397c21 12 43 12 65 0"/>
    <path d="M610 620c68-115 115-210 140-286"/>
    <path d="M706 332l84 35M700 336l40-82"/>
    <path d="M98 660c125-78 257-117 397-117M210 630c-57-61-103-93-138-96"/>
  </g>
  <g fill="none" stroke="#19120b" stroke-width="5" stroke-linecap="round" stroke-linejoin="round">
    <path d="M145 180l18 46 46 18-46 18-18 46-18-46-46-18 46-18 18-46Z"/>
    <path d="M640 132l12 31 31 12-31 12-12 31-12-31-31-12 31-12 12-31Z"/>
    <path d="M488 184l10 25 25 10-25 10-10 25-10-25-25-10 25-10 10-25Z"/>
    <path d="M220 400h160M520 265h140"/>
  </g>
  <text x="425" y="1015" text-anchor="middle" font-size="42" font-family="Georgia, serif" fill="#19120b">Dasharatha Rises to the Stars</text>
</svg>
