<svg xmlns="http://www.w3.org/2000/svg" viewBox="0 0 850 1100" role="img" aria-labelledby="title desc">
  <title id="title">Shani Patience Symbols Coloring Page</title>
  <desc id="desc">Line art symbols for patience: steps, lamp, sesame bowl, clock, and stars.</desc>
  <rect width="850" height="1100" fill="#fffdf8"/>
  <g fill="none" stroke="#19120b" stroke-width="7" stroke-linecap="round" stroke-linejoin="round">
    <circle cx="425" cy="220" r="105"/>
    <path d="M425 145v75l52 36"/>
    <path d="M320 220h-62M592 220h-62M425 115V58M425 382v-57"/>
    <path d="M240 480c68-38 133-38 196 0-63 53-128 53-196 0Z"/>
    <path d="M310 515c8 50 51 77 126 80"/>
    <path d="M500 480c58-52 115-52 170 0-55 52-112 52-170 0Z"/>
    <path d="M545 520c12 52 54 78 125 78"/>
    <path d="M202 735h446M232 735c20-78 84-118 193-118s173 40 193 118"/>
    <path d="M280 780c52 37 238 37 290 0"/>
    <path d="M360 660c18-56 40-56 58 0M430 660c18-56 40-56 58 0"/>
    <path d="M355 910c45-65 95-65 140 0-45 42-95 42-140 0Z"/>
    <path d="M425 842v68M380 850h90"/>
  </g>
  <g fill="none" stroke="#19120b" stroke-width="5" stroke-linecap="round" stroke-linejoin="round">
    <path d="M128 130l14 36 36 14-36 14-14 36-14-36-36-14 36-14 14-36Z"/>
    <path d="M706 130l14 36 36 14-36 14-14 36-14-36-36-14 36-14 14-36Z"/>
    <path d="M128 870l14 36 36 14-36 14-14 36-14-36-36-14 36-14 14-36Z"/>
    <path d="M706 870l14 36 36 14-36 14-14 36-14-36-36-14 36-14 14-36Z"/>
    <circle cx="360" cy="784" r="8"/><circle cx="395" cy="790" r="8"/><circle cx="430" cy="784" r="8"/><circle cx="465" cy="790" r="8"/>
  </g>
  <text x="425" y="1038" text-anchor="middle" font-size="42" font-family="Georgia, serif" fill="#19120b">The Slow Path</text>
</svg>
