<svg xmlns="http://www.w3.org/2000/svg" viewBox="0 0 850 1100" role="img" aria-labelledby="title desc">
  <title id="title">Vamana's Umbrella Coloring Page</title>
  <desc id="desc">Line art of Vamana with umbrella and three cosmic steps.</desc>
  <rect width="850" height="1100" fill="#fffdf8"/>
  <g fill="none" stroke="#19120b" stroke-width="7" stroke-linecap="round" stroke-linejoin="round">
    <path d="M425 305v536"/>
    <path d="M230 292c87-110 303-110 390 0-108 40-238 40-390 0Z"/>
    <path d="M425 168v124M317 238c69-37 142-37 216 0"/>
    <circle cx="425" cy="430" r="70"/>
    <path d="M342 545c38-45 166-45 166 0v166H342V545Z"/>
    <path d="M342 604l-112 77M508 604l112 77"/>
    <path d="M372 711l-45 140M478 711l45 140"/>
    <path d="M370 406h1M480 406h1M390 450c23 14 46 14 69 0"/>
    <path d="M330 502c62 42 126 42 190 0"/>
    <path d="M175 855c100-96 200-96 300 0M375 855c100-96 200-96 300 0M275 950c100-96 200-96 300 0"/>
    <circle cx="190" cy="205" r="30"/><circle cx="660" cy="188" r="24"/><circle cx="130" cy="700" r="24"/><circle cx="715" cy="720" r="32"/>
  </g>
  <g fill="none" stroke="#19120b" stroke-width="5" stroke-linecap="round">
    <path d="M110 120h95M645 120h95M110 980h95M645 980h95"/>
    <path d="M235 296c37-56 78-86 124-90M615 296c-37-56-78-86-124-90"/>
  </g>
  <text x="425" y="1040" text-anchor="middle" font-size="44" font-family="Georgia, serif" fill="#19120b">Three Steps of Vamana</text>
</svg>
